<svg xmlns="http://www.w3.org/2000/svg" width="720" height="540" viewBox="0 0 720 540" font-family="system-ui, -apple-system, sans-serif">
  <style>
    .box { stroke-width: 1.5; rx: 8 }
    .label { font-size: 14px; font-weight: 600 }
    .sublabel { font-size: 11px; fill: #666 }
    .pin { font-size: 11px; fill: #444; font-family: monospace }
    .arr { stroke: #666; stroke-width: 1.2; fill: none; marker-end: url(#ah) }
    .arr-dash { stroke: #888; stroke-width: 1.2; fill: none; stroke-dasharray: 5 3; marker-end: url(#ah) }
    .note { font-size: 10px; fill: #999; font-style: italic }
  </style>
  <defs>
    <marker id="ah" viewBox="0 0 10 10" refX="8" refY="5" markerWidth="6" markerHeight="6" orient="auto-start-reverse">
      <path d="M2 1L8 5L2 9" fill="none" stroke="inherit" stroke-width="1.5" stroke-linecap="round" stroke-linejoin="round"/>
    </marker>
  </defs>

  <!-- === LEFT COLUMN: Power chain === -->

  <!-- Solar panel -->
  <rect x="30" y="30" width="150" height="50" class="box" fill="#FFF8E1" stroke="#E6A817"/>
  <text x="105" y="52" text-anchor="middle" class="label" fill="#8B6914">Solar panel</text>
  <text x="105" y="68" text-anchor="middle" class="sublabel">5–6V (optional)</text>

  <!-- Arrow: Solar → FC-75 -->
  <line x1="105" y1="80" x2="105" y2="120" class="arr" stroke="#E6A817"/>

  <!-- FC-75 charger -->
  <rect x="30" y="122" width="150" height="50" class="box" fill="#FFF0E8" stroke="#D85A30"/>
  <text x="105" y="142" text-anchor="middle" class="label" fill="#8B3A1F">FC-75 charger</text>
  <text x="105" y="160" text-anchor="middle" class="sublabel">TC4056A</text>

  <!-- Arrow: FC-75 → Battery -->
  <line x1="105" y1="172" x2="105" y2="220" class="arr" stroke="#D85A30"/>

  <!-- Battery -->
  <rect x="30" y="222" width="150" height="50" class="box" fill="#E8F5E9" stroke="#388E3C"/>
  <text x="105" y="242" text-anchor="middle" class="label" fill="#2E7D32">18650 Li-Ion</text>
  <text x="105" y="260" text-anchor="middle" class="sublabel">3.0 – 4.2V</text>

  <!-- === MIDDLE: Voltage dividers === -->

  <!-- Voltage divider: battery -->
  <rect x="230" y="228" width="50" height="28" rx="4" fill="#F5F5F5" stroke="#999" stroke-width="1"/>
  <text x="255" y="247" text-anchor="middle" class="sublabel">1:2</text>
  <text x="255" y="222" text-anchor="middle" class="note">110k/110k</text>

  <!-- Voltage divider: solar -->
  <rect x="230" y="298" width="50" height="28" rx="4" fill="#F5F5F5" stroke="#999" stroke-width="1"/>
  <text x="255" y="317" text-anchor="middle" class="sublabel">1:2</text>
  <text x="255" y="292" text-anchor="middle" class="note">110k/110k</text>

  <!-- === RIGHT: ESP32 === -->

  <rect x="330" y="80" width="190" height="320" rx="10" fill="#E3F2FD" stroke="#1976D2" stroke-width="1.5"/>
  <text x="425" y="108" text-anchor="middle" class="label" fill="#0D47A1" font-size="15">ESP32</text>

  <text x="348" y="145" class="pin">VIN (3.3V LDO)</text>
  <text x="348" y="178" class="pin">SDA</text>
  <text x="348" y="200" class="pin">SCL</text>
  <text x="348" y="242" class="pin">ADC (battery)</text>
  <text x="348" y="312" class="pin">ADC (solar)</text>
  <text x="348" y="348" class="pin">GPIO (LED)</text>
  <text x="348" y="380" class="pin">WiFi / MQTT-UDP</text>

  <!-- === FAR RIGHT: Sensor + LED === -->

  <!-- BME280/SHT30 -->
  <rect x="575" y="160" width="115" height="50" class="box" fill="#E0F2F1" stroke="#00897B"/>
  <text x="632" y="180" text-anchor="middle" class="label" fill="#00695C">BME280</text>
  <text x="632" y="198" text-anchor="middle" class="sublabel">or SHT30</text>

  <!-- LED -->
  <rect x="575" y="330" width="115" height="40" class="box" fill="#FCE4EC" stroke="#C2185B"/>
  <text x="632" y="355" text-anchor="middle" class="label" fill="#880E4F">LED</text>

  <!-- === BOTTOM: Server === -->

  <rect x="330" y="455" width="190" height="50" class="box" fill="#EDE7F6" stroke="#7B1FA2"/>
  <text x="425" y="475" text-anchor="middle" class="label" fill="#4A148C">Server</text>
  <text x="425" y="493" text-anchor="middle" class="sublabel">listenudp.py + web.py</text>

  <!-- === ARROWS === -->

  <!-- Battery → ESP32 VIN (L-shape: right then up then right) -->
  <path d="M180 242 L210 242 L210 145 L328 145" class="arr" stroke="#388E3C"/>

  <!-- Battery → R divider bat (horizontal) -->
  <line x1="180" y1="242" x2="228" y2="242" class="arr" stroke="#666"/>

  <!-- R divider bat → ESP32 ADC bat (horizontal) -->
  <line x1="280" y1="242" x2="328" y2="242" class="arr" stroke="#666"/>

  <!-- Solar tap → R divider solar (down left side, then across) -->
  <path d="M30 55 L15 55 L15 312 L228 312" class="arr" stroke="#E6A817"/>

  <!-- R divider solar → ESP32 ADC solar (horizontal) -->
  <line x1="280" y1="312" x2="328" y2="312" class="arr" stroke="#666"/>

  <!-- ESP32 I2C → Sensor (horizontal) -->
  <line x1="520" y1="185" x2="573" y2="185" class="arr" stroke="#00897B"/>
  <text x="547" y="178" text-anchor="middle" class="note">I2C</text>

  <!-- ESP32 GPIO → LED (horizontal) -->
  <line x1="520" y1="348" x2="573" y2="348" class="arr" stroke="#C2185B"/>

  <!-- ESP32 WiFi → Server (vertical dashed) -->
  <path d="M425 400 L425 453" class="arr-dash" stroke="#7B1FA2"/>
  <text x="450" y="435" class="note">UDP broadcast</text>
</svg>
